<?xml version="1.0" encoding="UTF-8" standalone="no"?>
<!-- Created with Inkscape (http://www.inkscape.org/) -->

<svg
   xmlns:dc="http://purl.org/dc/elements/1.1/"
   xmlns:cc="http://creativecommons.org/ns#"
   xmlns:rdf="http://www.w3.org/1999/02/22-rdf-syntax-ns#"
   xmlns:svg="http://www.w3.org/2000/svg"
   xmlns="http://www.w3.org/2000/svg"
   xmlns:sodipodi="http://sodipodi.sourceforge.net/DTD/sodipodi-0.dtd"
   xmlns:inkscape="http://www.inkscape.org/namespaces/inkscape"
   width="210mm"
   height="297mm"
   viewBox="0 0 210 297"
   version="1.1"
   id="svg8"
   inkscape:version="0.92.4 (5da689c313, 2019-01-14)"
   sodipodi:docname="amp_logo.svg">
  <defs
     id="defs2" />
  <sodipodi:namedview
     id="base"
     pagecolor="#ffffff"
     bordercolor="#666666"
     borderopacity="1.0"
     inkscape:pageopacity="0.0"
     inkscape:pageshadow="2"
     inkscape:zoom="0.47118628"
     inkscape:cx="-84.033859"
     inkscape:cy="673.99573"
     inkscape:document-units="mm"
     inkscape:current-layer="layer1"
     showgrid="false"
     showguides="true"
     inkscape:guide-bbox="true"
     inkscape:window-width="1920"
     inkscape:window-height="977"
     inkscape:window-x="0"
     inkscape:window-y="33"
     inkscape:window-maximized="1" />
  <metadata
     id="metadata5">
    <rdf:RDF>
      <cc:Work
         rdf:about="">
        <dc:format>image/svg+xml</dc:format>
        <dc:type
           rdf:resource="http://purl.org/dc/dcmitype/StillImage" />
        <dc:title></dc:title>
      </cc:Work>
    </rdf:RDF>
  </metadata>
  <g
     inkscape:label="Ebene 1"
     inkscape:groupmode="layer"
     id="layer1">
    <g
       id="g925"
       transform="matrix(0.79722911,0,0,0.79722911,3.7573467,42.195636)">
      <g
         inkscape:label="Layer 1"
         id="layer1-4"
         transform="matrix(0.28222222,0,0,0.28222222,121.25476,-247.29722)">
        <g
           transform="translate(-390.2071,940.07447)"
           id="g4236"
           inkscape:export-filename="/home/mleonova/Pictures/office hours/Pulp/final/pulp_word.png"
           inkscape:export-xdpi="90"
           inkscape:export-ydpi="90">
          <path
             style="opacity:1;fill:#04ae19;fill-opacity:1;stroke:none;stroke-width:4.40485716;stroke-linecap:round;stroke-linejoin:round;stroke-miterlimit:4;stroke-dasharray:none;stroke-dashoffset:0;stroke-opacity:1"
             d="m 383.20655,396.36429 c -10.55376,8.96535 -25.43828,12.42625 -35.99006,11.10505 0.84945,-6.86243 6.3978,-24.04396 17.24056,-33.1762 10.59473,-8.9233 29.20367,-14.6293 36.97027,-12.71365 1.98655,10.78842 -7.66683,25.81927 -18.22077,34.7848 z"
             id="path4432"
             inkscape:connector-curvature="0"
             sodipodi:nodetypes="scscs" />
          <g
             style="fill:#04ae19;fill-opacity:1;stroke:none"
             id="g4434"
             transform="matrix(0.92204773,0,0,0.92204773,-554.11752,-1234.7469)">
            <path
               style="opacity:1;fill:#04ae19;fill-opacity:1;stroke:none;stroke-width:4.40485716;stroke-linecap:round;stroke-linejoin:round;stroke-miterlimit:4;stroke-dasharray:none;stroke-dashoffset:0;stroke-opacity:1"
               d="m 959.85401,1770.4306 c 4.5637,6.2171 12.18287,10.0092 18.07028,10.6524 0.42358,-3.8278 -0.36983,-13.8518 -5.06864,-20.1965 -4.59133,-6.1993 -13.93929,-11.6878 -18.39418,-11.6502 -2.46584,5.5898 0.82883,14.9773 5.39254,21.1943 z"
               id="path4436"
               inkscape:connector-curvature="0"
               sodipodi:nodetypes="scscs" />
          </g>
          <path
             style="color:#000000;font-style:normal;font-variant:normal;font-weight:normal;font-stretch:normal;font-size:medium;line-height:normal;font-family:sans-serif;text-indent:0;text-align:start;text-decoration:none;text-decoration-line:none;text-decoration-style:solid;text-decoration-color:#000000;letter-spacing:normal;word-spacing:normal;text-transform:none;writing-mode:lr-tb;direction:ltr;baseline-shift:baseline;text-anchor:start;white-space:normal;clip-rule:nonzero;display:inline;overflow:visible;visibility:visible;opacity:1;isolation:auto;mix-blend-mode:normal;color-interpolation:sRGB;color-interpolation-filters:linearRGB;solid-color:#000000;solid-opacity:1;fill:#347dbe;fill-opacity:1;fill-rule:nonzero;stroke:none;stroke-width:23;stroke-linecap:round;stroke-linejoin:round;stroke-miterlimit:4;stroke-dasharray:none;stroke-dashoffset:0;stroke-opacity:1;color-rendering:auto;image-rendering:auto;shape-rendering:auto;text-rendering:auto;enable-background:accumulate"
             d="m 330.20774,416.25032 c -45.16376,0 -81.93835,36.7746 -81.93835,81.93833 0,0.16361 0.008,0.32604 0.008,0.48942 h 15.04819 c 0,-0.16338 -0.008,-0.32575 -0.008,-0.48942 0,-37.03108 29.85907,-66.89012 66.89016,-66.89012 37.0311,0 66.8888,29.85904 66.8888,66.89012 0,0.16367 -0.008,0.32604 -0.008,0.48942 h 15.04827 c 6.5e-4,-0.16338 0.008,-0.32581 0.008,-0.48942 0,-45.16373 -36.77331,-81.93833 -81.93707,-81.93833 z"
             id="path4438"
             inkscape:connector-curvature="0" />
          <path
             inkscape:connector-curvature="0"
             id="path4440"
             transform="translate(83.355629,246.70606)"
             d="m 246.85156,194.8125 a 56.014499,56.014499 0 0 0 -39.24414,16.11523 l 43.30664,27.83594 5.53125,-3.23047 v -39.89062 a 56.014499,56.014499 0 0 0 -9.59375,-0.83008 z m 19.07813,3.40234 v 35.81836 l 7.83789,4.47266 21.35547,-15.97852 a 56.014499,56.014499 0 0 0 -29.19336,-24.3125 z m -64.53125,19.9961 a 56.014499,56.014499 0 0 0 -10.5625,32.61523 56.014499,56.014499 0 0 0 0.041,1.14649 h 56.14453 l -0.0234,-4.46875 a 4.7433303,4.7433303 0 0 1 -0.35938,-0.21094 l -45.24023,-29.08203 z m 97.87109,13.06054 -21.25391,15.9004 0.0254,4.80078 h 24.76757 a 56.014499,56.014499 0 0 0 0.0586,-1.14649 56.014499,56.014499 0 0 0 -3.59766,-19.55469 z"
             style="opacity:1;fill:#ff9507;fill-opacity:1;stroke:none;stroke-width:23;stroke-linecap:round;stroke-linejoin:round;stroke-miterlimit:4;stroke-dasharray:none;stroke-dashoffset:0;stroke-opacity:1" />
        </g>
        <g
           style="fill:#347dbe;fill-opacity:1"
           id="g4458"
           transform="matrix(0.80206143,0,0,0.80206143,-1133.652,907.85911)"
           inkscape:export-filename="/home/mleonova/Pictures/office hours/Pulp/final/pulp_word.png"
           inkscape:export-xdpi="90"
           inkscape:export-ydpi="90">
          <path
             inkscape:connector-curvature="0"
             id="path4448"
             style="font-style:normal;font-variant:normal;font-weight:bold;font-stretch:normal;font-size:106.77455902px;line-height:125%;font-family:Cabin;-inkscape-font-specification:'Cabin Bold';text-align:end;writing-mode:lr-tb;text-anchor:end;fill:#347dbe;fill-opacity:1;stroke:none;stroke-width:4;stroke-linecap:round;stroke-linejoin:round;stroke-miterlimit:4;stroke-dasharray:none;stroke-dashoffset:0;stroke-opacity:1"
             d="m 1277.6647,718.79432 c 13.9359,0 21.3394,-10.36487 21.3394,-22.55884 0,-12.19396 -7.4035,-22.55883 -21.3394,-22.55883 -4.7905,0 -7.7519,1.2194 -10.7133,3.22269 l -0.871,-2.52589 h -9.4068 v 64.62801 h 10.8004 v -23.16853 c 2.8743,1.9162 5.6615,2.96139 10.1907,2.96139 z m -0.6968,-36.2335 c 6.968,0 10.9745,5.57439 10.9745,13.67466 0,8.10028 -4.0065,13.67467 -10.9745,13.67467 -6.968,0 -10.0165,-5.57439 -10.0165,-13.67467 0,-8.10027 3.0485,-13.67466 10.0165,-13.67466 z" />
          <path
             inkscape:connector-curvature="0"
             id="path4450"
             style="font-style:normal;font-variant:normal;font-weight:bold;font-stretch:normal;font-size:106.77455902px;line-height:125%;font-family:Cabin;-inkscape-font-specification:'Cabin Bold';text-align:end;writing-mode:lr-tb;text-anchor:end;fill:#347dbe;fill-opacity:1;stroke:none;stroke-width:4;stroke-linecap:round;stroke-linejoin:round;stroke-miterlimit:4;stroke-dasharray:none;stroke-dashoffset:0;stroke-opacity:1"
             d="m 1344.2395,717.92332 v -43.54987 h -10.8004 v 31.7043 c -2.0033,2.3517 -4.6163,3.6582 -8.1873,3.6582 -6.097,0 -8.6229,-3.83239 -8.6229,-11.93267 v -23.42983 h -10.8004 v 23.42983 c 0,12.28106 4.8776,20.99104 18.4652,20.99104 3.3968,0 7.1421,-1.5678 9.668,-3.48399 l 0.1742,2.61299 z" />
          <path
             inkscape:connector-curvature="0"
             id="path4454"
             style="font-style:normal;font-variant:normal;font-weight:bold;font-stretch:normal;font-size:106.77455902px;line-height:125%;font-family:Cabin;-inkscape-font-specification:'Cabin Bold';text-align:end;writing-mode:lr-tb;text-anchor:end;fill:#347dbe;fill-opacity:1;stroke:none;stroke-width:4;stroke-linecap:round;stroke-linejoin:round;stroke-miterlimit:4;stroke-dasharray:none;stroke-dashoffset:0;stroke-opacity:1"
             d="m 1369.2449,709.91015 c -4.2678,0 -5.2259,0 -5.2259,-6.96799 v -50.34364 h -10.8004 v 54.78573 c 0,6.27118 3.3969,11.41007 11.1488,11.41007 h 3.9195 z" />
          <path
             inkscape:connector-curvature="0"
             id="path4456"
             style="font-style:normal;font-variant:normal;font-weight:bold;font-stretch:normal;font-size:106.77455902px;line-height:125%;font-family:Cabin;-inkscape-font-specification:'Cabin Bold';text-align:end;writing-mode:lr-tb;text-anchor:end;fill:#347dbe;fill-opacity:1;stroke:none;stroke-width:4;stroke-linecap:round;stroke-linejoin:round;stroke-miterlimit:4;stroke-dasharray:none;stroke-dashoffset:0;stroke-opacity:1"
             d="m 1399.2183,718.79432 c 13.936,0 21.3395,-10.36487 21.3395,-22.55884 0,-12.19396 -7.4035,-22.55883 -21.3395,-22.55883 -4.7905,0 -7.7519,1.2194 -10.7132,3.22269 l -0.871,-2.52589 h -9.4068 v 64.62801 h 10.8004 v -23.16853 c 2.8742,1.9162 5.6614,2.96139 10.1906,2.96139 z m -0.6968,-36.2335 c 6.968,0 10.9746,5.57439 10.9746,13.67466 0,8.10028 -4.0066,13.67467 -10.9746,13.67467 -6.968,0 -10.0164,-5.57439 -10.0164,-13.67467 0,-8.10027 3.0484,-13.67466 10.0164,-13.67466 z" />
        </g>
      </g>
      <path
         inkscape:transform-center-y="1.5155916e-06"
         inkscape:transform-center-x="-17.498379"
         d="m 179.39615,146.47903 -104.990308,60.61619 0,-121.232368 z"
         inkscape:randomized="0"
         inkscape:rounded="0"
         inkscape:flatsided="true"
         sodipodi:arg2="1.0471976"
         sodipodi:arg1="0"
         sodipodi:r2="34.996761"
         sodipodi:r1="69.993538"
         sodipodi:cy="146.47903"
         sodipodi:cx="109.40261"
         sodipodi:sides="3"
         id="path899"
         style="opacity:1;fill:none;fill-opacity:1;fill-rule:nonzero;stroke:#000000;stroke-width:2.50868913;stroke-linejoin:round;stroke-miterlimit:4;stroke-dasharray:none;stroke-dashoffset:0;stroke-opacity:1"
         sodipodi:type="star" />
      <path
         style="opacity:1;fill:none;fill-rule:evenodd;stroke:#000000;stroke-width:2.50868913;stroke-linecap:butt;stroke-linejoin:miter;stroke-miterlimit:4;stroke-dasharray:none;stroke-opacity:1"
         d="M 48.66195,146.47903 H 74.235018"
         id="path903"
         inkscape:connector-curvature="0" />
      <path
         inkscape:connector-curvature="0"
         id="path927"
         d="m 179.39615,146.47903 h 25.57317"
         style="opacity:1;fill:none;fill-rule:evenodd;stroke:#000000;stroke-width:2.50868917;stroke-linecap:butt;stroke-linejoin:miter;stroke-miterlimit:4;stroke-dasharray:none;stroke-opacity:1" />
    </g>
    <text
       xml:space="preserve"
       style="font-style:normal;font-variant:normal;font-weight:normal;font-stretch:normal;font-size:11.15871407px;line-height:15.49802113px;font-family:sans-serif;-inkscape-font-specification:'sans-serif, Normal';text-align:start;letter-spacing:0px;word-spacing:0px;writing-mode:lr;text-anchor:start;fill:#000000;fill-opacity:1;stroke:none;stroke-width:0.61992085px;stroke-linecap:butt;stroke-linejoin:miter;stroke-opacity:1;font-variant-ligatures:normal;font-variant-caps:normal;font-variant-numeric:normal;font-feature-settings:normal;"
       x="37.572269"
       y="45.803669"
       id="text933"><tspan
         sodipodi:role="line"
         id="tspan931"
         x="37.572269"
         y="45.803669"
         style="stroke-width:0.61992085px;-inkscape-font-specification:'sans-serif, Normal';font-family:sans-serif;font-weight:normal;font-style:normal;font-stretch:normal;font-variant:normal;font-size:11.15871407px;text-anchor:start;text-align:start;writing-mode:lr;font-variant-ligatures:normal;font-variant-caps:normal;font-variant-numeric:normal;font-feature-settings:normal;">Ansible Modules for Pulp</tspan></text>
    <text
       xml:space="preserve"
       style="font-style:normal;font-variant:normal;font-weight:normal;font-stretch:normal;font-size:42.85544563px;line-height:59.52257538px;font-family:sans-serif;-inkscape-font-specification:'sans-serif, Normal';text-align:start;letter-spacing:0px;word-spacing:0px;writing-mode:lr;text-anchor:start;fill:#000000;fill-opacity:1;stroke:none;stroke-width:2.38090301px;stroke-linecap:butt;stroke-linejoin:miter;stroke-opacity:1;font-variant-ligatures:normal;font-variant-caps:normal;font-variant-numeric:normal;font-feature-settings:normal;"
       x="60.908718"
       y="97.352478"
       id="text937"><tspan
         sodipodi:role="line"
         id="tspan935"
         x="60.908718"
         y="97.352478"
         style="stroke-width:2.38090301px;-inkscape-font-specification:'sans-serif, Normal';font-family:sans-serif;font-weight:normal;font-style:normal;font-stretch:normal;font-variant:normal;font-size:42.85544563px;text-anchor:start;text-align:start;writing-mode:lr;font-variant-ligatures:normal;font-variant-caps:normal;font-variant-numeric:normal;font-feature-settings:normal;">AMP</tspan></text>
  </g>
</svg>
